<?xml version="1.0" encoding="UTF-8" standalone="no"?>
<!DOCTYPE svg PUBLIC "-//W3C//DTD SVG 1.1//EN"
 "http://www.w3.org/Graphics/SVG/1.1/DTD/svg11.dtd">
<!-- Generated by graphviz version 2.26.3 (20100126.1600)
 -->
<!-- Title: models_diagram Pages: 1 -->
<svg width="484pt" height="250pt"
 viewBox="0.00 0.00 484.00 250.00" xmlns="http://www.w3.org/2000/svg" xmlns:xlink="http://www.w3.org/1999/xlink">
<g id="graph1" class="graph" transform="scale(1 1) rotate(0) translate(4 246)">
<title>models_diagram</title>
<polygon fill="white" stroke="white" points="-4,5 -4,-246 481,-246 481,5 -4,5"/>
<!-- _diagram_info -->
<g id="node1" class="node"><title>_diagram_info</title>
<text text-anchor="start" x="8" y="-225.8" font-family="Times Roman,serif" font-size="13.00">Models diagram</text>
<text text-anchor="start" x="8" y="-208.8" font-family="Times Roman,serif" font-size="13.00">Date: Nov 11 2013 &#45; 23:16</text>
<text text-anchor="start" x="8" y="-191.8" font-family="Times Roman,serif" font-size="13.00">Migration version: 20131111214334</text>
<text text-anchor="start" x="8" y="-174.8" font-family="Times Roman,serif" font-size="13.00">Generated by RailRoady 1.1.1</text>
<text text-anchor="start" x="8" y="-157.8" font-family="Times Roman,serif" font-size="13.00">http://railroady.prestonlee.com</text>
</g>
<!-- Comment -->
<g id="node2" class="node"><title>Comment</title>
<ellipse fill="none" stroke="black" cx="372" cy="-19" rx="58.1882" ry="18.3848"/>
<text text-anchor="middle" x="372" y="-15.4" font-family="Times Roman,serif" font-size="14.00">Comment</text>
</g>
<!-- Post -->
<g id="node3" class="node"><title>Post</title>
<ellipse fill="none" stroke="black" cx="402" cy="-93" rx="32.0265" ry="18.3848"/>
<text text-anchor="middle" x="402" y="-89.4" font-family="Times Roman,serif" font-size="14.00">Post</text>
</g>
<!-- Post&#45;&gt;Comment -->
<g id="edge4" class="edge"><title>Post&#45;&gt;Comment</title>
<path fill="none" stroke="#1c4311" d="M391.538,-67.1947C388.883,-60.6457 386.019,-53.5801 383.323,-46.9309"/>
<ellipse fill="none" stroke="#1c4311" cx="393.081" cy="-71.0009" rx="4.00001" ry="4.00001"/>
<polygon fill="#1c4311" stroke="#1c4311" points="383.296,-46.8631 383.709,-35.905 381.417,-42.2294 379.539,-37.5957 379.539,-37.5957 379.539,-37.5957 381.417,-42.2294 375.368,-39.2864 383.296,-46.8631 383.296,-46.8631"/>
</g>
<!-- ActiveRecord::Base -->
<g id="node4" class="node"><title>ActiveRecord::Base</title>
<ellipse fill="none" stroke="black" cx="372" cy="-195" rx="103.945" ry="18.3848"/>
<text text-anchor="middle" x="372" y="-191.4" font-family="Times Roman,serif" font-size="14.00">ActiveRecord::Base</text>
</g>
<!-- ActiveRecord::Base&#45;&gt;Comment -->
<g id="edge2" class="edge"><title>ActiveRecord::Base&#45;&gt;Comment</title>
<path fill="none" stroke="black" d="M368.07,-176.128C363.619,-152.315 357.425,-110.104 361,-74 362.219,-61.6933 364.935,-48.0612 367.364,-37.4474"/>
</g>
<!-- ActiveRecord::Base&#45;&gt;Post -->
<g id="edge6" class="edge"><title>ActiveRecord::Base&#45;&gt;Post</title>
<path fill="none" stroke="black" d="M377.502,-176.292C382.949,-157.773 391.234,-129.603 396.633,-111.247"/>
</g>
</g>
</svg>
