<?xml version="1.0" encoding="UTF-8" standalone="no"?>
<!DOCTYPE svg PUBLIC "-//W3C//DTD SVG 1.1//EN"
 "http://www.w3.org/Graphics/SVG/1.1/DTD/svg11.dtd">
<!-- Generated by graphviz version 2.26.3 (20100126.1600)
 -->
<!-- Title: controllers_diagram Pages: 1 -->
<svg width="610pt" height="398pt"
 viewBox="0.00 0.00 610.00 398.22" xmlns="http://www.w3.org/2000/svg" xmlns:xlink="http://www.w3.org/1999/xlink">
<g id="graph1" class="graph" transform="scale(1 1) rotate(0) translate(4 394.223)">
<title>controllers_diagram</title>
<polygon fill="white" stroke="white" points="-4,5 -4,-394.223 607,-394.223 607,5 -4,5"/>
<!-- _diagram_info -->
<g id="node1" class="node"><title>_diagram_info</title>
<text text-anchor="start" x="359" y="-148.3" font-family="Times Roman,serif" font-size="13.00">Controllers diagram</text>
<text text-anchor="start" x="359" y="-131.3" font-family="Times Roman,serif" font-size="13.00">Date: Nov 11 2013 &#45; 23:16</text>
<text text-anchor="start" x="359" y="-114.3" font-family="Times Roman,serif" font-size="13.00">Migration version: 20131111214334</text>
<text text-anchor="start" x="359" y="-97.3" font-family="Times Roman,serif" font-size="13.00">Generated by RailRoady 1.1.1</text>
<text text-anchor="start" x="359" y="-80.3" font-family="Times Roman,serif" font-size="13.00">http://railroady.prestonlee.com</text>
</g>
<!-- ApplicationController -->
<g id="node2" class="node"><title>ApplicationController</title>
<polyline fill="none" stroke="black" points="13,-284.301 227,-284.301 "/>
<path fill="none" stroke="black" d="M227,-284.301C233,-284.301 239,-290.301 239,-296.301"/>
<polyline fill="none" stroke="black" points="239,-296.301 239,-374.301 "/>
<path fill="none" stroke="black" d="M239,-374.301C239,-380.301 233,-386.301 227,-386.301"/>
<polyline fill="none" stroke="black" points="227,-386.301 13,-386.301 "/>
<path fill="none" stroke="black" d="M13,-386.301C7,-386.301 1,-380.301 1,-374.301"/>
<polyline fill="none" stroke="black" points="1,-374.301 1,-296.301 "/>
<path fill="none" stroke="black" d="M1,-296.301C1,-290.301 7,-284.301 13,-284.301"/>
<text text-anchor="middle" x="120" y="-369.701" font-family="Times Roman,serif" font-size="14.00">ApplicationController</text>
<polyline fill="none" stroke="black" points="1,-360.301 239,-360.301 "/>
<text text-anchor="start" x="9" y="-343.701" font-family="Times Roman,serif" font-size="14.00">_one_time_conditions_valid_12?</text>
<polyline fill="none" stroke="black" points="1,-334.301 239,-334.301 "/>
<polyline fill="none" stroke="black" points="1,-310.301 239,-310.301 "/>
<text text-anchor="start" x="9" y="-293.701" font-family="Times Roman,serif" font-size="14.00">_layout</text>
</g>
<!-- CommentsController -->
<g id="node3" class="node"><title>CommentsController</title>
<polyline fill="none" stroke="black" points="264.99,-286.723 399.99,-286.723 "/>
<path fill="none" stroke="black" d="M399.99,-286.723C405.99,-286.723 411.99,-292.723 411.99,-298.723"/>
<polyline fill="none" stroke="black" points="411.99,-298.723 411.99,-376.723 "/>
<path fill="none" stroke="black" d="M411.99,-376.723C411.99,-382.723 405.99,-388.723 399.99,-388.723"/>
<polyline fill="none" stroke="black" points="399.99,-388.723 264.99,-388.723 "/>
<path fill="none" stroke="black" d="M264.99,-388.723C258.99,-388.723 252.99,-382.723 252.99,-376.723"/>
<polyline fill="none" stroke="black" points="252.99,-376.723 252.99,-298.723 "/>
<path fill="none" stroke="black" d="M252.99,-298.723C252.99,-292.723 258.99,-286.723 264.99,-286.723"/>
<text text-anchor="middle" x="332.49" y="-372.123" font-family="Times Roman,serif" font-size="14.00">CommentsController</text>
<polyline fill="none" stroke="black" points="252.99,-362.723 411.99,-362.723 "/>
<text text-anchor="start" x="260.99" y="-346.123" font-family="Times Roman,serif" font-size="14.00">create</text>
<polyline fill="none" stroke="black" points="252.99,-336.723 411.99,-336.723 "/>
<polyline fill="none" stroke="black" points="252.99,-312.723 411.99,-312.723 "/>
<text text-anchor="start" x="260.99" y="-296.123" font-family="Times Roman,serif" font-size="14.00">_layout</text>
</g>
<!-- ApplicationController&#45;&gt;CommentsController -->
<g id="edge2" class="edge"><title>ApplicationController&#45;&gt;CommentsController</title>
<path fill="none" stroke="black" d="M239.289,-336.66C243.83,-336.712 248.338,-336.764 252.781,-336.814"/>
</g>
<!-- PostsController -->
<g id="node4" class="node"><title>PostsController</title>
<polyline fill="none" stroke="black" points="179.348,-1.5 276.348,-1.5 "/>
<path fill="none" stroke="black" d="M276.348,-1.5C282.348,-1.5 288.348,-7.5 288.348,-13.5"/>
<polyline fill="none" stroke="black" points="288.348,-13.5 288.348,-199.5 "/>
<path fill="none" stroke="black" d="M288.348,-199.5C288.348,-205.5 282.348,-211.5 276.348,-211.5"/>
<polyline fill="none" stroke="black" points="276.348,-211.5 179.348,-211.5 "/>
<path fill="none" stroke="black" d="M179.348,-211.5C173.348,-211.5 167.348,-205.5 167.348,-199.5"/>
<polyline fill="none" stroke="black" points="167.348,-199.5 167.348,-13.5 "/>
<path fill="none" stroke="black" d="M167.348,-13.5C167.348,-7.5 173.348,-1.5 179.348,-1.5"/>
<text text-anchor="middle" x="227.848" y="-194.9" font-family="Times Roman,serif" font-size="14.00">PostsController</text>
<polyline fill="none" stroke="black" points="167.348,-185.5 288.348,-185.5 "/>
<text text-anchor="start" x="175.348" y="-168.9" font-family="Times Roman,serif" font-size="14.00">create</text>
<text text-anchor="start" x="175.348" y="-150.9" font-family="Times Roman,serif" font-size="14.00">destroy</text>
<text text-anchor="start" x="175.348" y="-132.9" font-family="Times Roman,serif" font-size="14.00">edit</text>
<text text-anchor="start" x="175.348" y="-114.9" font-family="Times Roman,serif" font-size="14.00">index</text>
<text text-anchor="start" x="175.348" y="-96.9" font-family="Times Roman,serif" font-size="14.00">new</text>
<text text-anchor="start" x="175.348" y="-78.9" font-family="Times Roman,serif" font-size="14.00">show</text>
<text text-anchor="start" x="175.348" y="-60.9" font-family="Times Roman,serif" font-size="14.00">update</text>
<polyline fill="none" stroke="black" points="167.348,-51.5 288.348,-51.5 "/>
<polyline fill="none" stroke="black" points="167.348,-27.5 288.348,-27.5 "/>
<text text-anchor="start" x="175.348" y="-10.9" font-family="Times Roman,serif" font-size="14.00">_layout</text>
</g>
<!-- ApplicationController&#45;&gt;PostsController -->
<g id="edge4" class="edge"><title>ApplicationController&#45;&gt;PostsController</title>
<path fill="none" stroke="black" d="M144.069,-284.238C154.188,-262.77 166.356,-236.957 178.241,-211.741"/>
</g>
</g>
</svg>
