<?xml version="1.0" encoding="UTF-8" standalone="no"?>
<!DOCTYPE svg PUBLIC "-//W3C//DTD SVG 1.1//EN"
 "http://www.w3.org/Graphics/SVG/1.1/DTD/svg11.dtd">
<!-- Generated by graphviz version 2.26.3 (20100126.1600)
 -->
<!-- Title: models_diagram Pages: 1 -->
<svg width="517pt" height="426pt"
 viewBox="0.00 0.00 517.00 426.00" xmlns="http://www.w3.org/2000/svg" xmlns:xlink="http://www.w3.org/1999/xlink">
<g id="graph1" class="graph" transform="scale(1 1) rotate(0) translate(4 422)">
<title>models_diagram</title>
<polygon fill="white" stroke="white" points="-4,5 -4,-422 514,-422 514,5 -4,5"/>
<!-- _diagram_info -->
<g id="node1" class="node"><title>_diagram_info</title>
<text text-anchor="start" x="8" y="-401.8" font-family="Times Roman,serif" font-size="13.00">Models diagram</text>
<text text-anchor="start" x="8" y="-384.8" font-family="Times Roman,serif" font-size="13.00">Date: Nov 11 2013 &#45; 23:16</text>
<text text-anchor="start" x="8" y="-367.8" font-family="Times Roman,serif" font-size="13.00">Migration version: 20131111214334</text>
<text text-anchor="start" x="8" y="-350.8" font-family="Times Roman,serif" font-size="13.00">Generated by RailRoady 1.1.1</text>
<text text-anchor="start" x="8" y="-333.8" font-family="Times Roman,serif" font-size="13.00">http://railroady.prestonlee.com</text>
</g>
<!-- Comment -->
<g id="node2" class="node"><title>Comment</title>
<polyline fill="none" stroke="black" points="301.5,-1 442.5,-1 "/>
<path fill="none" stroke="black" d="M442.5,-1C448.5,-1 454.5,-7 454.5,-13"/>
<polyline fill="none" stroke="black" points="454.5,-13 454.5,-113 "/>
<path fill="none" stroke="black" d="M454.5,-113C454.5,-119 448.5,-125 442.5,-125"/>
<polyline fill="none" stroke="black" points="442.5,-125 301.5,-125 "/>
<path fill="none" stroke="black" d="M301.5,-125C295.5,-125 289.5,-119 289.5,-113"/>
<polyline fill="none" stroke="black" points="289.5,-113 289.5,-13 "/>
<path fill="none" stroke="black" d="M289.5,-13C289.5,-7 295.5,-1 301.5,-1"/>
<text text-anchor="middle" x="372" y="-108.4" font-family="Times Roman,serif" font-size="14.00">Comment</text>
<polyline fill="none" stroke="black" points="289.5,-99 454.5,-99 "/>
<text text-anchor="start" x="297.5" y="-82.4" font-family="Times Roman,serif" font-size="14.00">id :integer</text>
<text text-anchor="start" x="297.5" y="-64.4" font-family="Times Roman,serif" font-size="14.00">post_id :integer</text>
<text text-anchor="start" x="297.5" y="-46.4" font-family="Times Roman,serif" font-size="14.00">body :text</text>
<text text-anchor="start" x="297.5" y="-28.4" font-family="Times Roman,serif" font-size="14.00">created_at :datetime</text>
<text text-anchor="start" x="297.5" y="-10.4" font-family="Times Roman,serif" font-size="14.00">updated_at :datetime</text>
</g>
<!-- Post -->
<g id="node3" class="node"><title>Post</title>
<polyline fill="none" stroke="black" points="356.5,-163 497.5,-163 "/>
<path fill="none" stroke="black" d="M497.5,-163C503.5,-163 509.5,-169 509.5,-175"/>
<polyline fill="none" stroke="black" points="509.5,-175 509.5,-275 "/>
<path fill="none" stroke="black" d="M509.5,-275C509.5,-281 503.5,-287 497.5,-287"/>
<polyline fill="none" stroke="black" points="497.5,-287 356.5,-287 "/>
<path fill="none" stroke="black" d="M356.5,-287C350.5,-287 344.5,-281 344.5,-275"/>
<polyline fill="none" stroke="black" points="344.5,-275 344.5,-175 "/>
<path fill="none" stroke="black" d="M344.5,-175C344.5,-169 350.5,-163 356.5,-163"/>
<text text-anchor="middle" x="427" y="-270.4" font-family="Times Roman,serif" font-size="14.00">Post</text>
<polyline fill="none" stroke="black" points="344.5,-261 509.5,-261 "/>
<text text-anchor="start" x="352.5" y="-244.4" font-family="Times Roman,serif" font-size="14.00">id :integer</text>
<text text-anchor="start" x="352.5" y="-226.4" font-family="Times Roman,serif" font-size="14.00">title :string</text>
<text text-anchor="start" x="352.5" y="-208.4" font-family="Times Roman,serif" font-size="14.00">body :text</text>
<text text-anchor="start" x="352.5" y="-190.4" font-family="Times Roman,serif" font-size="14.00">created_at :datetime</text>
<text text-anchor="start" x="352.5" y="-172.4" font-family="Times Roman,serif" font-size="14.00">updated_at :datetime</text>
</g>
<!-- Post&#45;&gt;Comment -->
<g id="edge4" class="edge"><title>Post&#45;&gt;Comment</title>
<path fill="none" stroke="#8a0142" d="M403.304,-155.205C401.013,-148.457 398.686,-141.603 396.388,-134.835"/>
<ellipse fill="none" stroke="#8a0142" cx="404.607" cy="-159.042" rx="4.00001" ry="4.00001"/>
<polygon fill="#8a0142" stroke="#8a0142" points="396.266,-134.473 397.312,-123.557 394.658,-129.738 393.051,-125.004 393.051,-125.004 393.051,-125.004 394.658,-129.738 388.79,-126.45 396.266,-134.473 396.266,-134.473"/>
</g>
<!-- ActiveRecord::Base -->
<g id="node4" class="node"><title>ActiveRecord::Base</title>
<ellipse fill="none" stroke="black" cx="372" cy="-371" rx="103.945" ry="18.3848"/>
<text text-anchor="middle" x="372" y="-367.4" font-family="Times Roman,serif" font-size="14.00">ActiveRecord::Base</text>
</g>
<!-- ActiveRecord::Base&#45;&gt;Comment -->
<g id="edge2" class="edge"><title>ActiveRecord::Base&#45;&gt;Comment</title>
<path fill="none" stroke="black" d="M361.232,-352.285C352.478,-335.927 340.819,-311.222 336,-288 324.621,-233.168 326.284,-217.151 336,-162 338.142,-149.842 341.657,-137.213 345.672,-125.207"/>
</g>
<!-- ActiveRecord::Base&#45;&gt;Post -->
<g id="edge6" class="edge"><title>ActiveRecord::Base&#45;&gt;Post</title>
<path fill="none" stroke="black" d="M378.966,-352.509C385.181,-336.012 394.646,-310.885 403.536,-287.286"/>
</g>
</g>
</svg>
